<svg xmlns="http://www.w3.org/2000/svg" viewBox="0 0 960 220" role="img" aria-hidden="true">
  <defs>
    <linearGradient id="ab-bg" x1="0%" y1="0%" x2="100%" y2="50%">
      <stop offset="0%" stop-color="#fff8f5"/>
      <stop offset="35%" stop-color="#ffefeb"/>
      <stop offset="70%" stop-color="#ffe4df"/>
      <stop offset="100%" stop-color="#ffd8d2"/>
    </linearGradient>
    <radialGradient id="ab-glow-l" cx="22%" cy="40%" r="55%">
      <stop offset="0%" stop-color="rgba(255,255,255,0.95)"/>
      <stop offset="45%" stop-color="rgba(255,236,232,0.4)"/>
      <stop offset="100%" stop-color="rgba(255,200,190,0)"/>
    </radialGradient>
    <radialGradient id="ab-glow-r" cx="78%" cy="35%" r="50%">
      <stop offset="0%" stop-color="rgba(255,255,255,0.75)"/>
      <stop offset="100%" stop-color="rgba(255,180,170,0)"/>
    </radialGradient>
    <linearGradient id="ab-horn" x1="0%" y1="0%" x2="100%" y2="100%">
      <stop offset="0%" stop-color="#ef5350"/>
      <stop offset="50%" stop-color="#e53935"/>
      <stop offset="100%" stop-color="#c62828"/>
    </linearGradient>
    <linearGradient id="ab-horn-body" x1="0%" y1="0%" x2="0%" y2="100%">
      <stop offset="0%" stop-color="#b71c1c"/>
      <stop offset="100%" stop-color="#8e1616"/>
    </linearGradient>
  </defs>
  <rect width="960" height="220" rx="12" fill="url(#ab-bg)"/>
  <rect width="960" height="220" rx="12" fill="url(#ab-glow-l)"/>
  <rect width="960" height="220" rx="12" fill="url(#ab-glow-r)"/>
  <circle cx="140" cy="160" r="38" fill="rgba(255,255,255,0.35)"/>
  <circle cx="820" cy="175" r="28" fill="rgba(255,200,195,0.25)"/>
  <circle cx="680" cy="48" r="22" fill="rgba(255,255,255,0.4)"/>
  <path fill="rgba(229,57,53,0.06)" d="M0 175c120-18 240 18 360 8s240-28 360-18 240 22 360 10v45H0z"/>
  <!-- Soft ground shadow -->
  <ellipse cx="498" cy="168" rx="120" ry="14" fill="rgba(90,20,20,0.08)"/>
  <g transform="translate(380 42)">
    <ellipse cx="118" cy="88" rx="14" ry="22" fill="url(#ab-horn-body)"/>
    <path fill="url(#ab-horn)" d="M24 28c0-8 6-14 14-14h8l132-18c12-2 22 6 24 18l28 108c2 12-6 22-18 24L52 188c-8 2-16-2-20-10L26 42c-2-6-2-10-2-14z"/>
    <path fill="rgba(0,0,0,0.1)" d="M38 44l118 132 4-8L42 36z"/>
    <ellipse cx="178" cy="78" rx="36" ry="52" fill="url(#ab-horn)" opacity="0.92"/>
    <path fill="rgba(255,255,255,0.28)" d="M52 48c48 8 88 28 118 52l-8 6c-32-28-72-46-118-54z"/>
  </g>
  <g fill="#e57373" opacity="0.4">
    <circle cx="280" cy="52" r="2.5"/>
    <circle cx="720" cy="58" r="2"/>
    <circle cx="520" cy="38" r="1.8"/>
  </g>
</svg>
