<svg xmlns="http://www.w3.org/2000/svg" viewBox="0 0 800 240" role="img" aria-hidden="true">
  <defs>
    <linearGradient id="rp-bg" x1="0%" y1="0%" x2="100%" y2="100%">
      <stop offset="0%" stop-color="#fff5f5"/>
      <stop offset="50%" stop-color="#ffe8ec"/>
      <stop offset="100%" stop-color="#fffbfb"/>
    </linearGradient>
    <linearGradient id="rp-book" x1="0%" y1="0%" x2="0%" y2="100%">
      <stop offset="0%" stop-color="#e53935"/>
      <stop offset="100%" stop-color="#b71c1c"/>
    </linearGradient>
  </defs>
  <rect width="800" height="240" rx="16" fill="url(#rp-bg)"/>
  <g transform="translate(400 120)">
    <path fill="url(#rp-book)" d="M-120-55c0-8 6-14 14-14h92c4 0 8 2 10 5l8 12 8-12c2-3 6-5 10-5h92c8 0 14 6 14 14v90c0 8-6 14-14 14H14c-4 0-8-2-10-5l-8-12-8 12c-2 3-6 5-10 5h-92c-8 0-14-6-14-14V-55z"/>
    <path fill="#ffffff" fill-opacity="0.92" d="M-95-35h70v70h-70v-70zm170 0h70v70h-70v-70z"/>
    <path fill="#ffffff" fill-opacity="0.35" d="M-8-48h16v116h-16z"/>
  </g>
</svg>
